<?xml version="1.0" encoding="UTF-8"?>
<svg id="_Слой_2" data-name="Слой 2" xmlns="http://www.w3.org/2000/svg" viewBox="0 0 121.26 96.28">
  <defs>
    <style>
      .cls-1 {
        fill: #27474d;
      }

      .cls-1, .cls-2, .cls-3, .cls-4, .cls-5, .cls-6, .cls-7, .cls-8, .cls-9, .cls-10, .cls-11, .cls-12, .cls-13, .cls-14, .cls-15, .cls-16, .cls-17 {
        stroke-width: 0px;
      }

      .cls-2 {
        fill: #54c7f2;
      }

      .cls-3 {
        fill: #231f20;
      }

      .cls-4 {
        fill: #c9cacc;
      }

      .cls-5 {
        fill: #dee327;
      }

      .cls-6 {
        fill: #a3cd41;
      }

      .cls-7 {
        fill: #bcbdc0;
      }

      .cls-8 {
        fill: #fff;
      }

      .cls-9 {
        fill: #fff20f;
      }

      .cls-10 {
        fill: #ed1c24;
      }

      .cls-11 {
        fill: #ea68a7;
      }

      .cls-12 {
        fill: #fbab22;
      }

      .cls-13 {
        fill: #fbfbfb;
      }

      .cls-14 {
        fill: #ed93be;
      }

      .cls-15 {
        fill: #fbd3d2;
      }

      .cls-16 {
        fill: #e7e7e8;
      }

      .cls-17 {
        fill: #00b7ef;
      }
    </style>
  </defs>
  <g id="_Слой_1-2" data-name="Слой 1">
    <g>
      <path class="cls-3" d="M105.79,37.17c.84-.99,2.64-.38,2.66.93.15,1.33-1.56,2.1-2.54,1.27-.59-.59-.67-1.55-.12-2.2"/>
      <path class="cls-3" d="M99.86,37.35c.65-.51,1.56-.55,2.32-.27,1.3.65,1.69,2.45.75,3.56-.86.96-2.51,1.02-3.37.04-.9-.92-.75-2.58.31-3.32"/>
      <path class="cls-3" d="M112.89,53.37c.64.62.78,1.56,1.08,2.36.64,2.28,1.32,4.62,1.29,7.01-.41-.06-.49-.52-.64-.83-.74-1.93-1.21-3.94-1.59-5.97-.12-.85-.35-1.72-.14-2.57"/>
      <path class="cls-3" d="M39.71,57.68c-.11.16-.21.33-.31.49.3-.1.57.09.83.21.05-.16.14-.48.18-.64-.24-.02-.47-.04-.71-.06M40.79,56.56c-.33.24-.31.79.05.99.36.28.94-.07.92-.51.03-.49-.61-.8-.98-.49M39.1,56.05c-.47.21-.52.94-.07,1.21.38.31,1.02.04,1.09-.44.15-.55-.53-1.06-1.02-.77M37.17,55.42c.32-.91,1.41-1.13,2.26-1.11,1.15.05,2.4.17,3.36.88.65.47.75,1.39.44,2.09-.49,1.18-1.39,2.19-2.44,2.91-.1.21-.2.43-.29.65-.12-.04-.36-.11-.47-.15.06-.19.17-.56.23-.75-.47-.05-.31.72-.8.58-.24-.2.1-.51.11-.76-.07-.02-.2-.07-.27-.09-.09.22-.18.43-.28.65-.14-.05-.41-.14-.54-.2.08-.21.16-.43.24-.64-.07-.04-.2-.11-.26-.15-.1.23-.2.47-.3.7-.71-.07-.26-.79-.25-1.24-.52-1.02-1.08-2.2-.73-3.36"/>
      <path class="cls-3" d="M109.42,54.79c.49.55.68,1.27.92,1.95.55,1.74.99,3.53,1.29,5.34.11.72.22,1.45.1,2.17-.48-.36-.61-.97-.82-1.49-.65-1.91-1.12-3.87-1.45-5.86-.08-.7-.26-1.42-.03-2.11"/>
      <path class="cls-3" d="M37.64,60.3c.39-.39.48.45.2.62-.38.36-.4-.45-.2-.62"/>
      <path class="cls-3" d="M38.36,60.41c.13.04.4.14.54.18-.09.24-.18.47-.28.71-.13-.04-.4-.12-.53-.16.09-.24.18-.49.27-.73"/>
      <path class="cls-3" d="M39.02,61.44c-.19-.27.11-.81.45-.68.18.26-.12.83-.45.68"/>
      <path class="cls-3" d="M39.89,60.94c.57.03.41.5.21.84-.13-.04-.39-.13-.53-.17.1-.22.21-.44.31-.66"/>
      <path class="cls-1" d="M89.65,3.36c-1.12,1.45-1.96,3.08-2.86,4.67-.18.33-.36.66-.54.99l.03.04c-.48.9-.95,1.8-1.36,2.73-1.01-2.51-1.99-5.07-3.42-7.39-.42-.6-.83-1.33-1.56-1.59-.47-.11-.76.38-.9.75-.42,1.2-.46,2.49-.52,3.75-.1,3.73.19,7.46.5,11.18-.28.15-.56.3-.85.45-1.08-.12-2.16-.06-3.22.11-1.33-2.36-2.68-4.72-4.32-6.89-.58-.72-1.15-1.49-1.96-1.96-.33-.22-.84-.19-1.01.21-.39.79-.31,1.71-.3,2.57.18,2.99.79,5.93,1.4,8.86-1.23.79-2.39,1.71-3.26,2.9-1.85,2.45-3.07,5.32-4.13,8.18-1.24,3.44-2.19,6.98-2.96,10.56-7.98.22-16.14,1.11-23.54,4.29-.42-4.83.14-9.77-1.07-14.51-.78-3.18-2.73-5.96-5.16-8.11-2.04-1.79-4.71-2.83-7.42-2.93-4.73-.22-9.49,1.92-12.56,5.51-2.18,2.6-3.46,5.87-3.9,9.22-.63,4.79.32,9.73,2.44,14.06,1.44,3.02,3.21,5.89,4.32,9.06.79,2.28,1.2,4.78.6,7.16-.37,1.4-1.14,2.79-2.42,3.53-1.03.6-2.34.58-3.39.04-1.57-.79-2.58-2.32-3.35-3.84-.95,2.38-.48,5.15.77,7.34.87,1.53,2.43,2.87,4.29,2.78,3.1-.17,5.86-2.02,7.78-4.37,3.42-4.14,5.05-9.34,7.55-14.02.75-1.34,1.59-2.72,2.91-3.57-1.51,3.5-1.74,7.4-1.43,11.15.41,4.52,1.55,8.99,3.52,13.08.8,1.6,1.72,3.2,3.05,4.43.93.89,2.26,1.09,3.44,1.46.49,2.03,1.05,4.1,2.24,5.84.54.76,1.25,1.51,2.18,1.76.89.23,1.69-.42,2.19-1.09,1.07-1.44,1.63-3.18,2.15-4.88l.28.03c.05,1.22.06,2.58.83,3.6.49.64,1.44.64,2.07.21,1.23-.81,1.99-2.13,2.67-3.4,8.29.35,16.6-.21,24.82-1.24.73,1.84,1.78,3.68,3.49,4.79.95.59,2.21,1.03,3.26.42,1.43-.82,2.29-2.31,3.05-3.73.27.83.69,1.68,1.46,2.16.34.24.84.29,1.18.02.69-.53,1.02-1.39,1.33-2.17.62-1.73,1-3.54,1.26-5.35,2.42-.71,4.66-2.29,5.8-4.58,1.51-2.97,1.33-6.47.69-9.65-.89-4.3-2.65-8.37-4.62-12.28l.2.12c1.97,2.64,4.13,5.18,6.76,7.2v.14c2.63,1.99,5.73,3.6,9.1,3.66,3.2.09,6.27-1.32,8.65-3.39,1.83-1.62,2.77-4.04,2.96-6.45.25-3.12-.46-6.23-1.49-9.15-1.5-4.09-3.63-7.95-6.22-11.45-.31-1.11-.66-2.27-1.57-3.05-.55-.6-1.4-.77-1.96-1.35-2.51-2.87-5.36-5.43-8.48-7.63,1.33-.75,1.78-2.36,1.79-3.79-2.48.4-5.03.7-7.54.35-.94-.1-1.77-.6-2.68-.82-.61-.15-1.19-.4-1.73-.72.24-1.11.44-2.22.68-3.33.06-.3.12-.59.17-.89.23-1.31.47-2.63.7-3.94.06-.33.12-.66.16-.99.27-1.93.58-3.87.64-5.82,0-.69.01-1.41-.35-2.02-.59.04-.96.53-1.3.95M89.38.48c.98-.57,2.56-.82,3.27.28,1.19,1.19,1.1,3.01,1.03,4.56-.31,4.24-1.17,8.42-1.97,12.59.86.38,1.77.74,2.72.77,3.13.2,6.2-.54,9.27-1.04-.09,1.26-.36,2.49-.46,3.75-.05.89-.32,1.75-.63,2.58,2.26,1.84,4.42,3.8,6.36,5.98.45.52,1.11.77,1.64,1.18.89.67,1.61,1.56,2.08,2.56.32.65.42,1.4.87,1.99,2.48,3.51,4.59,7.31,6.04,11.37,1.17,3.35,1.92,6.92,1.56,10.48-.33,2.94-1.54,5.9-3.83,7.86-2.91,2.49-6.7,4.08-10.57,3.86-3.25-.12-6.28-1.52-8.98-3.24.93,3.9,1.39,8.17-.2,11.97-.67,1.71-1.87,3.13-3.19,4.36,2.81.71,5.73,1.28,8.26,2.76.88.53,1.77,1.24,2.06,2.27.29,1-.24,2.04-1.01,2.68-1.4,1.19-3.16,1.82-4.88,2.37-4.36,1.32-8.9,1.92-13.41,2.45-10.01,1.06-20.08,1.41-30.14,1.41-10.72-.13-21.48-.52-32.1-2.04-3.45-.54-6.93-1.16-10.21-2.4-1.42-.59-2.94-1.25-3.85-2.56-.63-.88-.49-2.16.23-2.95,1.04-1.19,2.54-1.83,3.99-2.39,4.24-1.51,8.72-2.12,13.15-2.73-2.23-4.54-3.65-9.48-4.1-14.53-.47.26-.55.85-.81,1.28-1.95,3.93-4.45,7.91-8.4,10.08-1.98,1.02-4.27,1.73-6.51,1.34-2.24-.43-4.09-2.06-5.16-4.02-1.63-2.9-2.05-6.59-.68-9.68.67-1.57,1.33-3.15,1.98-4.73.18.18.33.39.42.63.69,1.56,1.37,3.13,2.08,4.67.55,1.04,1.26,2.16,2.46,2.51,1.01.11,1.58-.9,1.87-1.71.64-1.99.27-4.14-.38-6.07-1.16-3.32-3.08-6.3-4.53-9.49-1.9-4.1-2.84-8.65-2.54-13.17.25-4.35,1.75-8.68,4.55-12.06,2.99-3.56,7.41-5.86,12.02-6.36,3.29-.37,6.73.31,9.56,2.06,1.82,1.13,3.33,2.68,4.63,4.36,1.35,1.64,2.32,3.58,2.94,5.61,1.23,3.99,1.09,8.21,1.19,12.34.87-.19,1.71-.51,2.57-.74,5.45-1.5,11.09-2.17,16.73-2.39,1.12-4.26,2.27-8.54,4.1-12.56,1.33-2.88,2.93-5.8,5.52-7.74-.5-3.31-1.38-6.65-.99-10.03.12-1.21.82-2.29,1.85-2.93.43-.44,1.07-.22,1.61-.19,1.31.07,2.34,1,3.18,1.93,1.88,2.09,3.22,4.58,4.72,6.94-.15-3.98-.57-7.99-.05-11.97.22-1.36.55-2.94,1.82-3.72.49-.26.98-.73,1.58-.57.92.15,1.87.43,2.53,1.13,1.28,1.29,2.06,2.95,2.85,4.56,1.27-1.94,2.3-4.19,4.29-5.51"/>
      <path class="cls-9" d="M89.65,3.36c.34-.41.71-.91,1.3-.95.36.61.36,1.34.35,2.02-.05,1.96-.36,3.89-.63,5.82-1.54-.1-3.15-.8-3.87-2.23.91-1.58,1.75-3.22,2.86-4.67"/>
      <path class="cls-9" d="M84.91,11.79c.41-.93.88-1.83,1.36-2.73.48.74,1.04,1.51,1.88,1.88.72.36,1.55.32,2.34.32-.24,1.31-.48,2.63-.7,3.94-.92-.05-1.87-.1-2.69-.56-1.09-.54-1.79-1.58-2.38-2.61.1-.02.29-.05.39-.07l-.56-.31.36.14Z"/>
      <path class="cls-9" d="M84.03,13.55c.12-.26.25-.53.37-.79.41,1.14.97,2.34,2.07,2.96.94.58,2.1.49,3.15.36-.24,1.11-.45,2.22-.68,3.33-.05.24-.09.47-.13.71l-.02.1c-.39-.47-1.08-.14-1.61-.24-2.13-.03-3.78-1.76-4.47-3.65.45-.92.88-1.85,1.33-2.77"/>
      <path class="cls-9" d="M82.41,16.95c.4,1.43,1,3.01,2.42,3.7,1.2.63,2.58.27,3.84.06-.25,1.1-.49,2.2-.72,3.3-1.52.28-3.2.47-4.58-.37-1.26-.7-1.93-2.02-2.53-3.26.06-.14.12-.28.19-.42.47-1.01.92-2.01,1.38-3.02"/>
      <path class="cls-9" d="M79.53,23.32c.35-.77.69-1.55,1.03-2.32.5,1.6,1.14,3.51,2.9,4.09,1.43.59,2.87-.15,4.29-.33-.19.84-.23,1.75-.71,2.49-1.23.84-2.69,1.64-4.24,1.28-1.89-.42-3.04-2.15-3.89-3.75.19-.49.41-.98.62-1.46"/>
      <path class="cls-8" d="M79.03,3.57c.13-.37.43-.86.9-.75.73.26,1.14.98,1.56,1.59,1.43,2.32,2.4,4.87,3.42,7.39l-.36-.15.55.31c-.1.02-.29.05-.39.07-.11.24-.22.49-.32.73-.12.27-.25.53-.37.79-.74-1.51-1.24-3.12-1.94-4.65-.43-.92-.77-1.92-1.51-2.64-.24.45-.35.95-.35,1.46-.12,3.31.12,6.62.3,9.93.07.79.01,1.64.5,2.32-.07.14-.13.27-.19.42-.09.2-.18.4-.27.6-.34.78-.68,1.55-1.03,2.32-.26-1.59-.36-3.2-.52-4.81-.31-3.72-.6-7.45-.5-11.18.06-1.26.1-2.55.52-3.75"/>
      <path class="cls-8" d="M69.43,14.57c-.24,1.19.18,2.36.44,3.51.71,2.65,1.55,5.27,2.46,7.85.06,0,.19.01.26.02.82-.58,1.58-1.25,2.33-1.93-1.18-2.71-2.5-5.37-4.02-7.91-.41-.57-.73-1.34-1.46-1.54M67.65,10.44c.17-.4.68-.43,1.01-.21.81.47,1.39,1.24,1.96,1.96,1.63,2.17,2.99,4.53,4.32,6.89,1.02,1.8,1.95,3.66,2.93,5.48-3.3.41-5.41,3.32-6.91,6-.15-.31-.29-.62-.37-.96-.64-2.57-1.29-5.15-1.85-7.74-.6-2.93-1.22-5.87-1.39-8.86,0-.86-.09-1.78.3-2.57"/>
      <path class="cls-8" d="M39.89,60.94c-.1.22-.21.44-.31.66.13.04.39.13.53.17.2-.34.36-.81-.21-.84M39.02,61.45c.34.14.63-.42.45-.68-.34-.13-.64.42-.45.68M38.36,60.41c-.09.24-.18.48-.27.73.13.04.4.12.53.17.09-.24.19-.47.28-.71-.13-.05-.4-.14-.54-.18M37.64,60.3c-.2.17-.18.98.2.62.28-.17.19-1.01-.2-.62M37.17,55.42c-.35,1.16.21,2.34.73,3.36-.01.45-.46,1.16.25,1.24.1-.24.2-.47.3-.7.07.04.2.11.26.15-.08.21-.16.43-.24.64.14.05.41.15.54.2.09-.22.18-.44.27-.65.07.02.2.07.27.09-.02.24-.36.55-.12.76.49.15.33-.63.8-.58-.06.19-.17.56-.23.75.12.04.36.12.48.15.09-.22.19-.43.29-.65,1.06-.71,1.95-1.72,2.44-2.91.31-.7.21-1.62-.44-2.09-.96-.7-2.21-.83-3.36-.88-.85-.02-1.94.2-2.26,1.11M43.32,47.49c-1.09.61-1.87,1.65-2.44,2.74-.14-.72-.45-1.58-1.23-1.81-.96-.33-2,.41-2.21,1.35-.18.96.43,1.84,1.06,2.5.58.56,1.22,1.15,2.01,1.36,1.47-.66,2.74-1.76,3.7-3.06.55-.78.99-1.88.49-2.79-.27-.49-.93-.58-1.38-.29M98.41,24.74c.23-.11.46-.22.68-.34,3.11,2.19,5.96,4.76,8.48,7.63-.56.1-1.12.12-1.68.15-1.14.03-2.17.65-2.98,1.41-.18.21-.36.42-.54.63-1.18-.95-2.63-1.62-4.16-1.71-1.97-.16-3.94.64-5.35,2.01-1.93,1.94-2.5,4.99-1.78,7.57.59,2.01,2.09,3.74,4.05,4.53,2.59,1.1,5.81.4,7.7-1.69.82-.82,1.26-1.92,1.71-2.97,1.12.36,2.36.47,3.47.01,1.71-.63,2.94-2.34,2.98-4.16.06-.46.07-.92.11-1.39,2.59,3.5,4.72,7.35,6.22,11.45-4.18.41-8.4,1.32-12.08,3.43-2.46,1.41-4.6,3.48-5.81,6.07-.85,1.77-1.22,3.72-1.33,5.67-2.63-2.02-4.79-4.56-6.76-7.2-.55-1.43-1.25-2.8-1.93-4.17-.49-.92-.91-1.9-1.62-2.69.61,2.45,1.9,4.69,3.35,6.74,1.96,3.91,3.72,7.98,4.62,12.28.64,3.18.81,6.68-.69,9.65-1.14,2.29-3.38,3.87-5.8,4.58-1.09.31-2.22.43-3.34.55-.51,1.64-1.12,3.25-1.9,4.78-.76,1.41-1.62,2.91-3.05,3.73-1.04.61-2.31.18-3.26-.42-1.7-1.11-2.76-2.94-3.49-4.79-8.23,1.03-16.53,1.58-24.82,1.24-1.86-.08-3.72-.23-5.57-.42l-.28-.03c-.52,1.7-1.08,3.44-2.15,4.88-.5.67-1.3,1.31-2.19,1.09-.93-.26-1.64-1-2.18-1.76-1.19-1.74-1.75-3.81-2.24-5.84-1.18-.37-2.51-.57-3.44-1.46-1.33-1.22-2.25-2.82-3.05-4.43-1.96-4.1-3.11-8.57-3.52-13.08-.31-3.75-.07-7.66,1.43-11.15.73-.42,1.63-.56,2.45-.32,1.42.38,2.47,1.45,3.55,2.38.85.14,1.71-.27,2.37-.79.49-.53.84-1.19.94-1.91.36-2.27-.64-4.45-.69-6.71,7.4-3.18,15.56-4.06,23.54-4.29-1.13,5.29-1.87,10.68-2.05,16.09-.18,2.29-.22,4.6.08,6.89.16.96.32,1.97.94,2.76.45.54,1.26.49,1.88.31,1.12-.36,1.95-1.29,2.62-2.22,1.29-1.86,2.15-3.99,2.89-6.12.37-1.04.58-2.15,1.11-3.13-.01.08-.03.24-.04.32-.21,1-.06,2.02,0,3.02.15,1.62.31,3.28.93,4.8.25.58.63,1.24,1.31,1.34.74.04,1.34-.52,1.74-1.08.83-1.21,1.28-2.64,1.69-4.04.97-3.52,1.49-7.15,1.93-10.77.2.76.29,1.61.82,2.23.77.91,2.21.94,3.21.41.97-.77,1.31-2.05,1.66-3.19.56-2.21.93-4.48,1.02-6.75.38-3.43.56-6.89.69-10.34.36,1.15.8,2.36,1.78,3.14,1.21,1.02,3.02.93,4.37.25.89-1.36.77-3.06.82-4.61.07-.47.13-.93.17-1.4,1.22.55,2.46,1.24,3.84,1.2.8,0,1.62-.53,1.8-1.35.2-.67-.08-1.34-.29-1.97.25-.43.46-.89.57-1.38,2.17.26,4.88.25,6.24-1.79-.54-.5-1.13-.96-1.72-1.4"/>
      <path class="cls-8" d="M95.32,34.29c1.8-.88,4.03-.79,5.74.26,2.57,1.52,3.63,5.1,2.2,7.74-.42.68-.8,1.55-1.62,1.82.54-1.11,1.4-2.16,1.29-3.47.94-1.11.55-2.91-.75-3.56-.83-1.28-2.05-2.36-3.56-2.69-1.07-.36-2.19-.06-3.29-.09"/>
      <path class="cls-8" d="M39.1,56.05c.49-.3,1.17.21,1.02.77-.07.48-.71.74-1.09.44-.44-.27-.39-1,.08-1.21"/>
      <path class="cls-8" d="M40.79,56.56c.37-.32,1,0,.98.49.02.44-.56.79-.92.51-.36-.2-.38-.76-.05-.99"/>
      <path class="cls-15" d="M80.22,7.73c0-.51.11-1.01.34-1.46.75.72,1.09,1.72,1.52,2.64.7,1.53,1.2,3.14,1.94,4.65-.45.92-.88,1.85-1.33,2.77-.1.21-.2.42-.29.63-.46,1.01-.91,2.02-1.38,3.02-.49-.68-.43-1.53-.5-2.32-.18-3.31-.42-6.62-.3-9.93"/>
      <path class="cls-15" d="M69.43,14.57c.73.2,1.05.97,1.46,1.54,1.52,2.54,2.84,5.2,4.02,7.91-.74.68-1.51,1.35-2.33,1.93-.06,0-.19-.01-.26-.02-.91-2.59-1.75-5.2-2.46-7.85-.26-1.15-.67-2.32-.44-3.51"/>
      <path class="cls-15" d="M109.42,54.79c-.23.69-.05,1.41.04,2.11.33,1.98.8,3.95,1.45,5.86.21.52.35,1.13.82,1.49.12-.72.01-1.45-.1-2.17-.29-1.81-.73-3.6-1.29-5.34-.24-.68-.43-1.4-.92-1.95M112.89,53.37c-.2.85.03,1.72.15,2.57.38,2.02.85,4.04,1.59,5.97.16.31.24.77.65.83.02-2.39-.66-4.72-1.3-7.01-.3-.81-.44-1.74-1.09-2.36M105.24,51.31c3.67-2.12,7.9-3.03,12.08-3.43,1.03,2.92,1.74,6.04,1.49,9.15-.18,2.4-1.12,4.83-2.96,6.45-2.38,2.07-5.45,3.47-8.65,3.39-3.37-.07-6.47-1.68-9.11-3.66v-.15c.12-1.95.48-3.9,1.34-5.67,1.21-2.59,3.35-4.66,5.81-6.07"/>
      <path class="cls-12" d="M86.25,9.02c.18-.33.36-.66.53-.99.72,1.43,2.33,2.13,3.87,2.23-.05.33-.1.66-.16.99-.79,0-1.61.04-2.34-.32-.84-.37-1.4-1.13-1.88-1.88l-.02-.04Z"/>
      <path class="cls-12" d="M84.4,12.76c.1-.25.21-.49.32-.73.58,1.03,1.29,2.07,2.38,2.61.82.46,1.77.52,2.69.56-.05.3-.11.59-.17.89-1.05.12-2.21.22-3.15-.36-1.1-.62-1.66-1.82-2.07-2.96"/>
      <path class="cls-12" d="M82.41,16.95c.09-.21.19-.42.29-.63.7,1.89,2.34,3.62,4.47,3.65.53.1,1.22-.23,1.61.24-.03.12-.08.38-.11.5-1.26.21-2.63.57-3.84-.06-1.42-.69-2.02-2.27-2.42-3.7"/>
      <path class="cls-12" d="M80.83,20.39c.6,1.24,1.27,2.56,2.53,3.26,1.38.84,3.07.65,4.58.37-.04.24-.08.48-.12.73h-.08c-1.42.19-2.86.93-4.29.34-1.76-.59-2.4-2.49-2.9-4.09.09-.2.18-.4.27-.6"/>
      <path class="cls-14" d="M69.37,34.57c-1,4.38-1.97,8.78-2.77,13.21-.23,1.59-.59,3.19-.48,4.81.08.06.23.17.31.22.79-1.72,1-3.63,1.37-5.47.65-3.82,1.18-7.66,1.69-11.5.08-.57.17-1.16.08-1.73-.05.12-.15.35-.2.47M74.24,32.61c-.45,4.24-.89,8.49-.98,12.76,0,.96-.05,1.96.27,2.88.55-.17.5-.86.61-1.32.42-3.65.34-7.34.36-11.01-.04-1.19.08-2.39-.09-3.58-.04.07-.14.21-.18.27M68.6,28.96c-2.11,4.09-4.28,8.16-6.11,12.39-.37.95-.9,1.9-.82,2.96.35-.23.65-.54.86-.91,1.54-2.62,2.68-5.45,3.93-8.21,1.13-2.7,2.35-5.37,3.36-8.12-.62.45-.81,1.27-1.22,1.89M79.01,18.51c.16,1.6.26,3.21.52,4.81-.22.48-.43.97-.62,1.46-.09.31-.3.67-.1.98.7,1.34,1.7,2.67,3.15,3.25,1.51.61,3.22.03,4.46-.92.3-.2.44-.55.61-.85.49-.74.53-1.65.71-2.49h.08c.04-.25.08-.49.12-.73.24-1.1.47-2.2.72-3.3.03-.12.08-.37.11-.5l.02-.09c.04-.24.09-.47.14-.71.54.32,1.12.57,1.73.72.91.22,1.74.72,2.68.82,2.51.35,5.05.05,7.54-.35,0,1.44-.46,3.04-1.79,3.79-.22.12-.45.23-.68.34-2.46.85-5.03.06-7.5-.26.87.49,1.83.91,2.42,1.75.37.49.47,1.1.56,1.69-.11.49-.32.95-.57,1.38-2.02,1.04-4.17-.31-5.92-1.28.31,1.11.59,2.24.57,3.39-.04.47-.11.93-.17,1.4-.17.58-.23,1.26-.68,1.7-1.4.74-3.33.73-4.52-.41-.96-.86-1.29-2.13-1.69-3.31-.05,1.08-.07,2.16-.08,3.24-.13,3.45-.31,6.91-.69,10.34-.54,2.13-.68,4.44-1.87,6.35-.61,1.08-2.11,1.22-3.17.78-1.03-.48-1.25-1.7-1.49-2.69-.07.48-.12.97-.21,1.45-.32,2.71-.77,5.41-1.41,8.07-.44,1.71-.91,3.44-1.84,4.96-.44.67-1.13,1.46-2.01,1.31-.96-.29-1.25-1.4-1.53-2.24-.42-1.3-.33-2.7-.79-3.99.01-.08.03-.24.04-.32.15-.82.04-1.65-.06-2.47-1.03,3.18-2.01,6.48-4.05,9.19-.8,1.04-1.96,2.07-3.37,1.94-.74-.03-1.13-.74-1.36-1.36-.64-1.86-.57-3.85-.68-5.78.18-5.41.92-10.8,2.05-16.09.77-3.57,1.72-7.12,2.96-10.56,1.06-2.87,2.28-5.73,4.13-8.18.87-1.19,2.04-2.1,3.26-2.9.56,2.59,1.21,5.16,1.85,7.74.08.33.21.65.37.96,1.5-2.69,3.62-5.6,6.91-6-.98-1.83-1.9-3.68-2.93-5.48,1.07-.17,2.15-.23,3.23-.11.28-.15.56-.3.85-.46"/>
      <path class="cls-14" d="M23.46,49.63c-1.35.88-2.15,2.36-2.8,3.79-.32.76-.72,1.52-.78,2.37,1.11-2.08,2.05-4.58,4.32-5.66,1.12-.59,2.34-.17,3.46.15-.99-1.18-2.9-1.52-4.2-.64M21.12,42.85c-1.06.29-1.71,1.31-2.18,2.24-.38.95-.83,1.92-.81,2.96.57-1.26,1.13-2.6,2.23-3.51.76-.66,1.87-.89,2.83-.54.85.22,1.47.9,2.27,1.24-.25-.65-.86-1.03-1.37-1.45-.83-.65-1.89-1.19-2.97-.93M16.06,39.14c.64-.99,1.72-1.75,2.93-1.73,1.57,0,2.99.84,4.2,1.76,2.35,1.85,4.19,4.24,5.84,6.71,2.2,3.32,3.99,6.89,5.56,10.54-.66.51-1.51.93-2.36.79-1.08-.93-2.13-2-3.55-2.38-.82-.25-1.71-.1-2.45.32-1.32.85-2.16,2.23-2.91,3.57-2.5,4.68-4.12,9.88-7.55,14.02-1.92,2.35-4.68,4.2-7.78,4.37-1.85.09-3.42-1.26-4.29-2.78-1.25-2.18-1.71-4.96-.77-7.34-.01.92.05,1.84.21,2.75.17,1.51.61,3.04,1.55,4.26.71.93,1.9,1.46,3.07,1.34,1.94-.18,3.79-1.19,5.03-2.69,1.43-1.75,2.08-3.99,2.39-6.19.51-3.8.07-7.64-.48-11.4-.42-3.57-.63-7.19-.23-10.78.23-1.77.61-3.59,1.6-5.1"/>
      <path class="cls-2" d="M22.7,26.48c1.16.54,2.3,1.15,3.28,2,2.62,2.13,4.29,5.26,5.06,8.52.26.95.29,1.95.61,2.88.23-1.84.2-3.73-.31-5.52-.75-2.88-2.83-5.3-5.44-6.67-1.02-.51-2.05-1.08-3.2-1.2M8.63,27.76c3.07-3.59,7.83-5.73,12.56-5.51,2.71.1,5.38,1.13,7.42,2.93,2.43,2.15,4.38,4.93,5.16,8.1,1.21,4.74.66,9.68,1.07,14.51.05,2.26,1.05,4.44.69,6.71-1.85-6.35-3.99-12.67-7.22-18.47-1.33-2.32-2.84-4.61-4.9-6.34-1.34-1.13-3.09-1.94-4.88-1.7-2.5.2-4.72,1.72-6.13,3.74-2.05,2.88-2.91,6.43-3.19,9.91-.24,3.5.12,7.08,1.26,10.41.58,1.69,1.49,3.26,1.92,5.01l.23.05-.21.24.26.07c-.03.56.27,1.06.39,1.59.76,2.91,1.24,6.03.38,8.97-.56,1.96-1.96,3.67-3.83,4.53-1.33.62-2.95,1.08-4.36.42-1.23-.6-1.79-1.96-2.11-3.21-.16-.91-.22-1.83-.21-2.75.77,1.52,1.78,3.05,3.35,3.84,1.04.55,2.36.57,3.39-.04,1.28-.74,2.05-2.13,2.42-3.53.6-2.37.2-4.88-.6-7.16-1.11-3.17-2.89-6.04-4.32-9.06-2.12-4.33-3.07-9.26-2.44-14.06.44-3.35,1.73-6.62,3.9-9.22"/>
      <path class="cls-4" d="M90.91,24.49c2.47.32,5.04,1.11,7.5.26.59.44,1.18.9,1.72,1.4-1.35,2.04-4.06,2.05-6.24,1.79-.09-.59-.19-1.2-.56-1.69-.59-.84-1.56-1.27-2.42-1.75"/>
      <path class="cls-4" d="M87.4,28.03c1.75.98,3.9,2.32,5.92,1.28.2.63.48,1.3.29,1.97-.17.81-.99,1.35-1.8,1.35-1.38.04-2.62-.65-3.84-1.2.02-1.16-.26-2.29-.56-3.4"/>
      <path class="cls-4" d="M80.82,34.05c.02-1.08.04-2.16.08-3.24.4,1.17.73,2.45,1.69,3.3,1.19,1.14,3.12,1.15,4.52.41.45-.44.51-1.12.68-1.7-.06,1.55.06,3.26-.83,4.62-1.35.68-3.16.77-4.37-.25-.98-.78-1.42-1.99-1.77-3.14"/>
      <path class="cls-4" d="M109.75,39.98c.55-.63.88-1.41,1.23-2.16-.05,1.82-1.28,3.53-2.98,4.16-1.11.46-2.35.34-3.47-.01-.45,1.05-.88,2.14-1.71,2.96-1.89,2.09-5.11,2.79-7.7,1.69-1.95-.79-3.45-2.52-4.05-4.53.02-.12.06-.36.08-.48.98,2.72,3.66,4.75,6.58,4.71,3.14.07,6.06-2.28,6.75-5.32.24.12.47.25.71.38.15-.13.29-.26.44-.39v.42c1.5.23,3.07-.34,4.1-1.43"/>
      <path class="cls-4" d="M78.26,50.74c1.19-1.91,1.33-4.22,1.87-6.35-.09,2.28-.46,4.55-1.02,6.75-.35,1.14-.69,2.41-1.67,3.18-.99.53-2.44.5-3.21-.41-.53-.62-.63-1.47-.82-2.23-.44,3.62-.95,7.24-1.93,10.77-.41,1.4-.86,2.82-1.69,4.04-.4.56-1,1.12-1.74,1.08-.68-.1-1.06-.76-1.31-1.34-.61-1.52-.78-3.18-.93-4.8-.06-1.01-.21-2.03,0-3.03.46,1.29.37,2.69.79,3.99.27.85.57,1.95,1.53,2.24.89.15,1.58-.64,2.01-1.31.92-1.52,1.4-3.26,1.84-4.96.64-2.66,1.09-5.36,1.41-8.07.08-.48.14-.97.21-1.45.24.99.46,2.21,1.49,2.69,1.05.43,2.55.29,3.17-.79"/>
      <path class="cls-4" d="M87.8,49c.71.78,1.13,1.76,1.62,2.69.68,1.38,1.38,2.74,1.93,4.17l-.2-.12c-1.45-2.05-2.73-4.29-3.35-6.74"/>
      <path class="cls-4" d="M61.75,64.8c2.04-2.71,3.02-6.01,4.05-9.19.1.82.21,1.65.06,2.47-.54.98-.74,2.09-1.11,3.13-.74,2.13-1.6,4.26-2.89,6.12-.67.93-1.49,1.86-2.62,2.22-.61.18-1.43.23-1.88-.31-.62-.78-.78-1.8-.94-2.76-.29-2.28-.26-4.6-.07-6.89.1,1.93.04,3.93.68,5.78.22.61.62,1.32,1.35,1.35,1.41.13,2.57-.89,3.37-1.94"/>
      <path class="cls-4" d="M85.94,82.8c1.12-.12,2.25-.24,3.33-.55-.27,1.81-.65,3.62-1.26,5.35-.31.79-.64,1.64-1.33,2.17-.34.27-.84.23-1.18-.02-.77-.48-1.18-1.34-1.46-2.17.78-1.53,1.39-3.14,1.9-4.78"/>
      <path class="cls-4" d="M43.84,86.92c1.85.19,3.71.34,5.57.42-.69,1.26-1.44,2.59-2.67,3.39-.63.43-1.58.42-2.07-.21-.77-1.02-.78-2.38-.83-3.6"/>
      <path class="cls-11" d="M78.82,25.76c-.2-.31,0-.67.09-.98.85,1.6,2.01,3.33,3.89,3.75,1.54.36,3-.44,4.24-1.28-.18.3-.31.64-.61.85-1.24.95-2.95,1.53-4.46.92-1.45-.58-2.45-1.91-3.15-3.25"/>
      <path class="cls-11" d="M68.6,28.96c.41-.62.59-1.44,1.22-1.89-1.02,2.74-2.24,5.41-3.36,8.12-1.25,2.76-2.39,5.59-3.93,8.21-.21.37-.5.68-.86.91-.08-1.06.45-2.01.82-2.96,1.83-4.23,4-8.3,6.11-12.39"/>
      <path class="cls-11" d="M74.24,32.61c.04-.07.14-.2.18-.27.18,1.18.05,2.39.1,3.58-.02,3.67.05,7.36-.37,11.01-.11.46-.06,1.15-.61,1.32-.32-.92-.27-1.92-.27-2.88.09-4.27.53-8.52.98-12.76"/>
      <path class="cls-11" d="M69.37,34.57c.05-.12.15-.35.2-.47.1.58,0,1.16-.08,1.73-.51,3.84-1.04,7.68-1.69,11.5-.37,1.84-.58,3.75-1.37,5.47-.08-.06-.23-.17-.31-.22-.11-1.62.25-3.21.48-4.81.8-4.43,1.77-8.82,2.77-13.21"/>
      <path class="cls-11" d="M21.12,42.85c1.08-.26,2.14.28,2.97.93.51.42,1.12.8,1.37,1.45-.8-.34-1.41-1.02-2.27-1.24-.96-.35-2.06-.12-2.83.54-1.1.91-1.66,2.25-2.23,3.51-.02-1.04.43-2.01.81-2.96.47-.93,1.12-1.94,2.18-2.24"/>
      <path class="cls-11" d="M23.46,49.63c1.3-.88,3.21-.53,4.2.64-1.12-.32-2.34-.74-3.46-.15-2.28,1.08-3.21,3.58-4.32,5.66.06-.84.46-1.6.78-2.36.65-1.43,1.45-2.91,2.8-3.79"/>
      <path class="cls-17" d="M22.7,26.48c1.15.13,2.18.7,3.2,1.2,2.61,1.37,4.69,3.79,5.44,6.67.51,1.79.54,3.68.31,5.52-.32-.93-.36-1.93-.61-2.88-.77-3.26-2.44-6.38-5.06-8.52-.98-.84-2.12-1.45-3.28-2"/>
      <path class="cls-5" d="M17.14,31.18c-2.05,1.07-3.1,3.3-3.89,5.37-.25.8-.68,1.59-.58,2.45.5-1.41,1.02-2.82,1.8-4.1.97-1.66,2.5-3.26,4.52-3.41,1.55-.16,2.89.69,4.21,1.35-1.54-1.49-3.95-2.7-6.06-1.66M12.41,31.73c1.41-2.02,3.64-3.54,6.13-3.74,1.79-.23,3.53.57,4.88,1.7,2.07,1.73,3.57,4.02,4.9,6.34,3.23,5.8,5.36,12.12,7.22,18.47-.1.72-.45,1.38-.94,1.91-1.57-3.65-3.37-7.22-5.56-10.54-1.66-2.46-3.5-4.86-5.84-6.71-1.21-.92-2.63-1.77-4.2-1.76-1.21-.01-2.29.74-2.93,1.73-.99,1.51-1.36,3.34-1.6,5.1-.4,3.58-.18,7.21.23,10.78.55,3.77.99,7.61.48,11.4-.31,2.2-.95,4.44-2.39,6.19-1.24,1.51-3.09,2.51-5.03,2.69-1.17.12-2.35-.41-3.07-1.34-.94-1.22-1.38-2.75-1.55-4.26.32,1.25.88,2.62,2.11,3.21,1.41.66,3.03.2,4.36-.42,1.86-.85,3.27-2.56,3.83-4.53.86-2.94.38-6.07-.38-8.97-.12-.53-.41-1.03-.39-1.59l-.26-.07.21-.24-.23-.05c-.42-1.74-1.34-3.31-1.92-5.01-1.14-3.34-1.51-6.91-1.26-10.41.27-3.48,1.14-7.03,3.19-9.91"/>
      <path class="cls-6" d="M17.13,31.18c2.11-1.04,4.52.16,6.06,1.66-1.32-.66-2.66-1.51-4.21-1.35-2.03.15-3.56,1.75-4.52,3.41-.78,1.28-1.31,2.69-1.8,4.1-.1-.86.33-1.65.58-2.45.79-2.06,1.85-4.29,3.89-5.37"/>
      <path class="cls-16" d="M105.19,33.24c.8.02,1.62-.13,2.4.12,1.16.41,2.13,1.39,2.4,2.61.25.88-.04,1.77-.15,2.64.77-.77.82-1.95.69-2.96-.45-2.27-3.33-3.66-5.33-2.41M107.57,32.03c.56.58,1.41.75,1.96,1.35.91.78,1.26,1.94,1.57,3.05-.03.46-.05.93-.11,1.39-.35.75-.68,1.53-1.23,2.16-1.04,1.09-2.61,1.67-4.1,1.43v-.43c.08-.54.18-1.07.26-1.61.98.83,2.68.05,2.54-1.27-.02-1.3-1.82-1.91-2.66-.93-.45-.5-.64-1.15-.98-1.72-.48-.76-1.08-1.46-1.89-1.87.81-.76,1.84-1.37,2.97-1.41.56-.03,1.13-.05,1.68-.15"/>
      <path class="cls-16" d="M95.32,34.29c1.1.03,2.22-.27,3.29.09,1.52.34,2.74,1.42,3.56,2.69-.76-.28-1.67-.24-2.32.27-1.05.74-1.2,2.4-.31,3.32.86.99,2.51.92,3.37-.04.11,1.31-.75,2.36-1.29,3.47.82-.27,1.2-1.14,1.62-1.82,1.43-2.64.38-6.23-2.2-7.74-1.71-1.05-3.94-1.13-5.74-.26M92.86,34.52c1.4-1.37,3.38-2.17,5.35-2.01,1.53.09,2.98.76,4.16,1.71,1.83,1.7,2.71,4.34,2.12,6.79-.7,3.04-3.61,5.39-6.75,5.32-2.92.04-5.6-1.99-6.58-4.71-.02.12-.06.36-.08.48-.72-2.58-.14-5.64,1.78-7.58"/>
      <path class="cls-16" d="M39.71,57.68c.23.02.47.04.71.06-.05.16-.14.48-.18.64-.26-.12-.53-.31-.83-.21.1-.17.2-.33.31-.49"/>
      <path class="cls-13" d="M105.19,33.24c2-1.25,4.88.14,5.33,2.41.14,1.02.08,2.19-.69,2.96.11-.88.39-1.76.15-2.64-.26-1.22-1.24-2.2-2.4-2.61-.78-.25-1.6-.1-2.4-.12"/>
      <path class="cls-7" d="M102.91,33.58c.81.41,1.41,1.12,1.89,1.87.35.56.53,1.22.98,1.72-.55.64-.47,1.61.12,2.2-.08.54-.18,1.08-.26,1.62-.15.13-.3.26-.44.39-.24-.12-.48-.25-.71-.38.59-2.45-.3-5.09-2.12-6.79.18-.21.35-.42.54-.63"/>
      <path class="cls-10" d="M43.32,47.49c.45-.29,1.11-.2,1.38.3.51.9.07,2.01-.49,2.78-.96,1.29-2.23,2.39-3.7,3.06-.79-.2-1.43-.8-2.01-1.36-.63-.66-1.24-1.54-1.06-2.5.21-.94,1.26-1.68,2.21-1.35.78.24,1.09,1.09,1.23,1.81.57-1.09,1.35-2.13,2.44-2.74"/>
    </g>
  </g>
</svg>